<?xml version="1.0" ?><svg fill='#fff' style="enable-background:new 0 0 64 64;" version="1.1" viewBox="0 0 64 64" xml:space="preserve" xmlns="http://www.w3.org/2000/svg" xmlns:xlink="http://www.w3.org/1999/xlink"><style type="text/css">
	.st0{fill='#FFFFFF';}
	.st1{fill:none;stroke:#FFFFFF;stroke-width:2;stroke-miterlimit:10;}
	.st2{fill:#FFFFFF;}
</style><g id="Grid"/><g id="Proyektor"/><g id="Laptop"/><g id="Papan"/><g id="Kursi"/><g id="Meja"/><g id="Book"><g><path class="st0" d="M51,54h-4v-2h4V8H17V6h34c1.1,0,2,0.9,2,2v44C53,53.1,52.1,54,51,54z"/></g><g><path class="st0" d="M46,59H13c-1.1,0-2-0.9-2-2V11h35c1.1,0,2,0.9,2,1.9V57C48,58.1,47.1,59,46,59z M13,13v44h33V12.9L13,13z"/></g><g><path class="st0" d="M39.5,33h-20c-0.8,0-1.5-0.7-1.5-1.5v-13c0-0.8,0.7-1.5,1.5-1.5h20c0.8,0,1.5,0.7,1.5,1.5v13    C41,32.3,40.3,33,39.5,33z M20,31h19V19H20V31z"/></g><g><path class="st0" d="M36,26H23c-0.6,0-1-0.4-1-1s0.4-1,1-1h13c0.6,0,1,0.4,1,1S36.6,26,36,26z"/></g><g><path class="st0" d="M36,23H23c-0.6,0-1-0.4-1-1s0.4-1,1-1h13c0.6,0,1,0.4,1,1S36.6,23,36,23z"/></g><g><path class="st0" d="M36,29H23c-0.6,0-1-0.4-1-1s0.4-1,1-1h13c0.6,0,1,0.4,1,1S36.6,29,36,29z"/></g><g><rect class="st0" height="6" width="2" x="16" y="6"/></g><g><path class="st0" d="M13,11h-2c0-2.8,2.2-5,5-5v2C14.3,8,13,9.3,13,11z"/></g></g><g id="News"/><g id="Note"/><g id="Calculator"/><g id="Ruler"/><g id="Pencil"/><g id="Clock"/><g id="Document"/><g id="Galeri"/><g id="Storage_Pencil"/><g id="Tras_Can"/><g id="Stempel"/><g id="_x2E_.."/><g id="Clip"/><g id="Board"/></svg>